<svg
  xmlns="http://www.w3.org/2000/svg"
  width="896"
  height="288"
  viewBox="0 0 896 288"
  fill="none"
>
  <style>
    * {
      transform-origin: center;
      transform-box: fill-box;
    }

    .animate-ping {
      animation: ping 1s cubic-bezier(0, 0, 0.2, 1) infinite;
    }

    .animate-fade-in {
      animation: fade-in 0.64s cubic-bezier(0, 0, 0.2, 1) forwards;
    }

    .animate-fade-in-bottom {
      animation: fade-in-bottom 0.64s cubic-bezier(0, 0, 0.2, 1) forwards;
    }

    .animate-fade-in-right {
      animation: fade-in-right 0.64s cubic-bezier(0, 0, 0.2, 1) forwards;
    }

    .title {
      opacity: 0;
      animation-delay: 0.4s;
    }

    .description {
      opacity: 0;
      animation-delay: 0.7s;
    }

    .additional {
      opacity: 0;
      animation-delay: 1s;
    }

    .additional__indicator {
      opacity: 0;
      animation-delay: 1.6s;
    }

    @keyframes ping {
      75%,
      100% {
        transform: scale(2);
        opacity: 0;
      }
    }

    @keyframes fade-in {
      from {
        opacity: 0;
      }
      to {
        opacity: 1;
      }
    }

    @keyframes fade-in-bottom {
      from {
        opacity: 0;
        transform: translate3d(0, -20px, 0);
      }
      to {
        opacity: 1;
        transform: translate3d(0, 0, 0);
      }
    }

    @keyframes fade-in-right {
      from {
        opacity: 0;
        transform: translate3d(-20px, 0, 0);
      }
      to {
        opacity: 1;
        transform: translate3d(0, 0, 0);
      }
    }
  </style>
  <g clip-path="url(#clip0_1_2)">
    <!-- #region background  -->
    <rect width="896" height="288" fill="url(#paint0_linear_1_2)" />
    <mask
      id="mask0_1_2"
      style="mask-type: alpha"
      maskUnits="userSpaceOnUse"
      x="0"
      y="0"
      width="896"
      height="288"
    >
      <rect width="896" height="288" fill="url(#paint1_linear_1_2)" />
    </mask>
    <g mask="url(#mask0_1_2)">
      <path
        d="M32.5001 0L32.5001 288M64.5001 0L64.5001 288M96.5001 0L96.5001 288M128.5 0L128.5 288M160.5 0L160.5 288M192.5 0L192.5 288M224.5 0L224.5 288M256.5 0V288M288.5 0V288M320.5 0V288M352.5 0V288M384.5 0V288M416.5 0V288M448.5 0V288M480.5 0V288M512.5 0V288M544.5 0V288M576.5 0V288M608.5 0V288M640.5 0V288M672.5 0V288M704.5 0V288M736.5 0V288M768.5 0V288M800.5 0V288M832.5 0V288M864.5 0V288M0 31.5H896M0 63.5H896M0 95.5H896M0 127.5H896M0 159.5H896M0 191.5H896M0 223.5H896M0 255.5H896"
        stroke="white"
        stroke-opacity="0.04"
        stroke-dasharray="5 5"
      />
    </g>
    <!-- #endregion -->

    <!-- #region title -->
    <g class="animate-fade-in-bottom title">
    <svg width="678" height="86" viewBox="0 0 866 108" fill="none" xmlns="http://www.w3.org/2000/svg">
    <path d="M16.776 28.456V79H4.464V28.456H16.776ZM28.5064 28.456H41.1064L33.0424 47.752H24.7624L28.5064 28.456ZM99.603 38.392C104.595 38.392 108.555 39.904 111.483 42.928C114.459 45.952 115.947 50.152 115.947 55.528V79H103.707V57.184C103.707 54.592 103.011 52.6 101.619 51.208C100.275 49.768 98.403 49.048 96.003 49.048C93.603 49.048 91.707 49.768 90.315 51.208C88.971 52.6 88.299 54.592 88.299 57.184V79H76.059V57.184C76.059 54.592 75.363 52.6 73.971 51.208C72.627 49.768 70.755 49.048 68.355 49.048C65.955 49.048 64.059 49.768 62.667 51.208C61.323 52.6 60.651 54.592 60.651 57.184V79H48.339V38.824H60.651V43.864C61.899 42.184 63.531 40.864 65.547 39.904C67.563 38.896 69.843 38.392 72.387 38.392C75.411 38.392 78.099 39.04 80.451 40.336C82.851 41.632 84.723 43.48 86.067 45.88C87.459 43.672 89.355 41.872 91.755 40.48C94.155 39.088 96.771 38.392 99.603 38.392Z" fill="white"/>
    <path d="M202.704 28.456V79H190.392V48.688L179.088 79H169.152L157.776 48.616V79H145.464V28.456H160.008L174.192 63.448L188.232 28.456H202.704ZM229.846 79.576C225.91 79.576 222.358 78.736 219.19 77.056C216.07 75.376 213.598 72.976 211.774 69.856C209.998 66.736 209.11 63.088 209.11 58.912C209.11 54.784 210.022 51.16 211.846 48.04C213.67 44.872 216.166 42.448 219.334 40.768C222.502 39.088 226.054 38.248 229.99 38.248C233.926 38.248 237.478 39.088 240.646 40.768C243.814 42.448 246.31 44.872 248.134 48.04C249.958 51.16 250.87 54.784 250.87 58.912C250.87 63.04 249.934 66.688 248.062 69.856C246.238 72.976 243.718 75.376 240.502 77.056C237.334 78.736 233.782 79.576 229.846 79.576ZM229.846 68.92C232.198 68.92 234.19 68.056 235.822 66.328C237.502 64.6 238.342 62.128 238.342 58.912C238.342 55.696 237.526 53.224 235.894 51.496C234.31 49.768 232.342 48.904 229.99 48.904C227.59 48.904 225.598 49.768 224.014 51.496C222.43 53.176 221.638 55.648 221.638 58.912C221.638 62.128 222.406 64.6 223.942 66.328C225.526 68.056 227.494 68.92 229.846 68.92ZM282.098 38.392C286.706 38.392 290.402 39.928 293.186 43C295.97 46.024 297.362 50.2 297.362 55.528V79H285.122V57.184C285.122 54.496 284.426 52.408 283.034 50.92C281.642 49.432 279.77 48.688 277.418 48.688C275.066 48.688 273.194 49.432 271.802 50.92C270.41 52.408 269.714 54.496 269.714 57.184V79H257.402V25.72H269.714V44.224C270.962 42.448 272.666 41.032 274.826 39.976C276.986 38.92 279.41 38.392 282.098 38.392ZM303.469 58.84C303.469 54.712 304.237 51.088 305.773 47.968C307.357 44.848 309.493 42.448 312.181 40.768C314.869 39.088 317.869 38.248 321.181 38.248C324.013 38.248 326.485 38.824 328.597 39.976C330.757 41.128 332.413 42.64 333.565 44.512V38.824H345.877V79H333.565V73.312C332.365 75.184 330.685 76.696 328.525 77.848C326.413 79 323.941 79.576 321.109 79.576C317.845 79.576 314.869 78.736 312.181 77.056C309.493 75.328 307.357 72.904 305.773 69.784C304.237 66.616 303.469 62.968 303.469 58.84ZM333.565 58.912C333.565 55.84 332.701 53.416 330.973 51.64C329.293 49.864 327.229 48.976 324.781 48.976C322.333 48.976 320.245 49.864 318.517 51.64C316.837 53.368 315.997 55.768 315.997 58.84C315.997 61.912 316.837 64.36 318.517 66.184C320.245 67.96 322.333 68.848 324.781 68.848C327.229 68.848 329.293 67.96 330.973 66.184C332.701 64.408 333.565 61.984 333.565 58.912ZM406.048 38.392C411.04 38.392 415 39.904 417.928 42.928C420.904 45.952 422.392 50.152 422.392 55.528V79H410.152V57.184C410.152 54.592 409.456 52.6 408.064 51.208C406.72 49.768 404.848 49.048 402.448 49.048C400.048 49.048 398.152 49.768 396.76 51.208C395.416 52.6 394.744 54.592 394.744 57.184V79H382.504V57.184C382.504 54.592 381.808 52.6 380.416 51.208C379.072 49.768 377.2 49.048 374.8 49.048C372.4 49.048 370.504 49.768 369.112 51.208C367.768 52.6 367.096 54.592 367.096 57.184V79H354.784V38.824H367.096V43.864C368.344 42.184 369.976 40.864 371.992 39.904C374.008 38.896 376.288 38.392 378.832 38.392C381.856 38.392 384.544 39.04 386.896 40.336C389.296 41.632 391.168 43.48 392.512 45.88C393.904 43.672 395.8 41.872 398.2 40.48C400.6 39.088 403.216 38.392 406.048 38.392ZM482.267 38.392C487.259 38.392 491.219 39.904 494.147 42.928C497.123 45.952 498.611 50.152 498.611 55.528V79H486.371V57.184C486.371 54.592 485.675 52.6 484.283 51.208C482.939 49.768 481.067 49.048 478.667 49.048C476.267 49.048 474.371 49.768 472.979 51.208C471.635 52.6 470.963 54.592 470.963 57.184V79H458.723V57.184C458.723 54.592 458.027 52.6 456.635 51.208C455.291 49.768 453.419 49.048 451.019 49.048C448.619 49.048 446.723 49.768 445.331 51.208C443.987 52.6 443.315 54.592 443.315 57.184V79H431.003V38.824H443.315V43.864C444.563 42.184 446.195 40.864 448.211 39.904C450.227 38.896 452.507 38.392 455.051 38.392C458.075 38.392 460.763 39.04 463.115 40.336C465.515 41.632 467.387 43.48 468.731 45.88C470.123 43.672 472.019 41.872 474.419 40.48C476.819 39.088 479.435 38.392 482.267 38.392ZM545.094 58.264C545.094 59.416 545.022 60.616 544.878 61.864H517.014C517.206 64.36 517.998 66.28 519.39 67.624C520.83 68.92 522.582 69.568 524.646 69.568C527.718 69.568 529.854 68.272 531.054 65.68H544.158C543.486 68.32 542.262 70.696 540.486 72.808C538.758 74.92 536.574 76.576 533.934 77.776C531.294 78.976 528.342 79.576 525.078 79.576C521.142 79.576 517.638 78.736 514.566 77.056C511.494 75.376 509.094 72.976 507.366 69.856C505.638 66.736 504.774 63.088 504.774 58.912C504.774 54.736 505.614 51.088 507.294 47.968C509.022 44.848 511.422 42.448 514.494 40.768C517.566 39.088 521.094 38.248 525.078 38.248C528.966 38.248 532.422 39.064 535.446 40.696C538.47 42.328 540.822 44.656 542.502 47.68C544.23 50.704 545.094 54.232 545.094 58.264ZM532.494 55.024C532.494 52.912 531.774 51.232 530.334 49.984C528.894 48.736 527.094 48.112 524.934 48.112C522.87 48.112 521.118 48.712 519.678 49.912C518.286 51.112 517.422 52.816 517.086 55.024H532.494ZM549.141 58.84C549.141 54.712 549.909 51.088 551.445 47.968C553.029 44.848 555.165 42.448 557.853 40.768C560.541 39.088 563.541 38.248 566.853 38.248C569.493 38.248 571.893 38.8 574.053 39.904C576.261 41.008 577.989 42.496 579.237 44.368V25.72H591.549V79H579.237V73.24C578.085 75.16 576.429 76.696 574.269 77.848C572.157 79 569.685 79.576 566.853 79.576C563.541 79.576 560.541 78.736 557.853 77.056C555.165 75.328 553.029 72.904 551.445 69.784C549.909 66.616 549.141 62.968 549.141 58.84ZM579.237 58.912C579.237 55.84 578.373 53.416 576.645 51.64C574.965 49.864 572.901 48.976 570.453 48.976C568.005 48.976 565.917 49.864 564.189 51.64C562.509 53.368 561.669 55.768 561.669 58.84C561.669 61.912 562.509 64.36 564.189 66.184C565.917 67.96 568.005 68.848 570.453 68.848C572.901 68.848 574.965 67.96 576.645 66.184C578.373 64.408 579.237 61.984 579.237 58.912ZM647.178 70.072H628.314L625.29 79H612.402L630.69 28.456H644.946L663.234 79H650.202L647.178 70.072ZM644.01 60.568L637.746 42.064L631.554 60.568H644.01ZM688.96 49.048H682.336V79H670.024V49.048H665.56V38.824H670.024V37.672C670.024 32.728 671.44 28.984 674.272 26.44C677.104 23.848 681.256 22.552 686.728 22.552C687.64 22.552 688.312 22.576 688.744 22.624V33.064C686.392 32.92 684.736 33.256 683.776 34.072C682.816 34.888 682.336 36.352 682.336 38.464V38.824H688.96V49.048ZM717.137 68.56V79H710.873C706.409 79 702.929 77.92 700.433 75.76C697.937 73.552 696.689 69.976 696.689 65.032V49.048H691.793V38.824H696.689V29.032H709.001V38.824H717.065V49.048H709.001V65.176C709.001 66.376 709.289 67.24 709.865 67.768C710.441 68.296 711.401 68.56 712.745 68.56H717.137ZM748.691 38.392C753.299 38.392 756.995 39.928 759.779 43C762.563 46.024 763.955 50.2 763.955 55.528V79H751.715V57.184C751.715 54.496 751.019 52.408 749.627 50.92C748.235 49.432 746.363 48.688 744.011 48.688C741.659 48.688 739.787 49.432 738.395 50.92C737.003 52.408 736.307 54.496 736.307 57.184V79H723.995V25.72H736.307V44.224C737.555 42.448 739.259 41.032 741.419 39.976C743.579 38.92 746.003 38.392 748.691 38.392ZM770.063 58.84C770.063 54.712 770.831 51.088 772.367 47.968C773.951 44.848 776.087 42.448 778.775 40.768C781.463 39.088 784.463 38.248 787.775 38.248C790.607 38.248 793.079 38.824 795.191 39.976C797.351 41.128 799.007 42.64 800.159 44.512V38.824H812.471V79H800.159V73.312C798.959 75.184 797.279 76.696 795.119 77.848C793.007 79 790.535 79.576 787.703 79.576C784.439 79.576 781.463 78.736 778.775 77.056C776.087 75.328 773.951 72.904 772.367 69.784C770.831 66.616 770.063 62.968 770.063 58.84ZM800.159 58.912C800.159 55.84 799.295 53.416 797.567 51.64C795.887 49.864 793.823 48.976 791.375 48.976C788.927 48.976 786.839 49.864 785.111 51.64C783.431 53.368 782.591 55.768 782.591 58.84C782.591 61.912 783.431 64.36 785.111 66.184C786.839 67.96 788.927 68.848 791.375 68.848C793.823 68.848 795.887 67.96 797.567 66.184C799.295 64.408 800.159 61.984 800.159 58.912ZM833.69 44.512C834.842 42.64 836.498 41.128 838.658 39.976C840.818 38.824 843.29 38.248 846.074 38.248C849.386 38.248 852.386 39.088 855.074 40.768C857.762 42.448 859.874 44.848 861.41 47.968C862.994 51.088 863.786 54.712 863.786 58.84C863.786 62.968 862.994 66.616 861.41 69.784C859.874 72.904 857.762 75.328 855.074 77.056C852.386 78.736 849.386 79.576 846.074 79.576C843.242 79.576 840.77 79.024 838.658 77.92C836.546 76.768 834.89 75.256 833.69 73.384V79H821.378V25.72H833.69V44.512ZM851.258 58.84C851.258 55.768 850.394 53.368 848.666 51.64C846.986 49.864 844.898 48.976 842.402 48.976C839.954 48.976 837.866 49.864 836.138 51.64C834.458 53.416 833.618 55.84 833.618 58.912C833.618 61.984 834.458 64.408 836.138 66.184C837.866 67.96 839.954 68.848 842.402 68.848C844.85 68.848 846.938 67.96 848.666 66.184C850.394 64.36 851.258 61.912 851.258 58.84Z" fill="#2677D4"/>
    </svg>
     
    </g>
    <!-- #endregion -->

    <!-- #region description -->
    <g class="animate-fade-in-bottom description">
      <path
        d="M259.328 188V176.08H266.88V177.52H260.896V181.376H266.32V182.816H260.896V188H259.328ZM267.996 188V179.376H269.452V180.96L269.292 180.736C269.494 180.245 269.804 179.883 270.22 179.648C270.636 179.403 271.142 179.28 271.74 179.28H272.268V180.688H271.516C270.908 180.688 270.417 180.88 270.044 181.264C269.67 181.637 269.484 182.171 269.484 182.864V188H267.996ZM277.558 188.192C276.726 188.192 275.984 187.995 275.334 187.6C274.683 187.205 274.171 186.667 273.798 185.984C273.424 185.291 273.238 184.517 273.238 183.664C273.238 182.8 273.419 182.032 273.782 181.36C274.155 180.688 274.656 180.16 275.286 179.776C275.926 179.381 276.64 179.184 277.43 179.184C278.07 179.184 278.635 179.301 279.126 179.536C279.627 179.76 280.048 180.069 280.39 180.464C280.742 180.848 281.008 181.291 281.19 181.792C281.382 182.283 281.477 182.795 281.477 183.328C281.477 183.445 281.467 183.579 281.446 183.728C281.435 183.867 281.419 184 281.398 184.128H274.326V182.848H280.534L279.83 183.424C279.926 182.869 279.872 182.373 279.67 181.936C279.467 181.499 279.168 181.152 278.774 180.896C278.379 180.64 277.931 180.512 277.43 180.512C276.928 180.512 276.47 180.64 276.054 180.896C275.638 181.152 275.312 181.52 275.078 182C274.854 182.469 274.763 183.029 274.806 183.68C274.763 184.309 274.859 184.864 275.094 185.344C275.339 185.813 275.68 186.181 276.118 186.448C276.566 186.704 277.051 186.832 277.574 186.832C278.15 186.832 278.635 186.699 279.03 186.432C279.424 186.165 279.744 185.824 279.99 185.408L281.238 186.048C281.067 186.443 280.8 186.805 280.438 187.136C280.086 187.456 279.664 187.712 279.174 187.904C278.694 188.096 278.155 188.192 277.558 188.192ZM287.386 188.192C286.554 188.192 285.812 187.995 285.162 187.6C284.511 187.205 283.999 186.667 283.626 185.984C283.252 185.291 283.066 184.517 283.066 183.664C283.066 182.8 283.247 182.032 283.61 181.36C283.983 180.688 284.484 180.16 285.114 179.776C285.754 179.381 286.468 179.184 287.258 179.184C287.898 179.184 288.463 179.301 288.954 179.536C289.455 179.76 289.876 180.069 290.218 180.464C290.57 180.848 290.836 181.291 291.018 181.792C291.21 182.283 291.306 182.795 291.306 183.328C291.306 183.445 291.295 183.579 291.274 183.728C291.263 183.867 291.247 184 291.226 184.128H284.154V182.848H290.362L289.658 183.424C289.754 182.869 289.7 182.373 289.498 181.936C289.295 181.499 288.996 181.152 288.602 180.896C288.207 180.64 287.759 180.512 287.258 180.512C286.756 180.512 286.298 180.64 285.882 180.896C285.466 181.152 285.14 181.52 284.906 182C284.682 182.469 284.591 183.029 284.634 183.68C284.591 184.309 284.687 184.864 284.922 185.344C285.167 185.813 285.508 186.181 285.946 186.448C286.394 186.704 286.879 186.832 287.402 186.832C287.978 186.832 288.463 186.699 288.858 186.432C289.252 186.165 289.572 185.824 289.818 185.408L291.066 186.048C290.895 186.443 290.628 186.805 290.266 187.136C289.914 187.456 289.492 187.712 289.002 187.904C288.522 188.096 287.983 188.192 287.386 188.192ZM293.246 188V175.888H294.734V188H293.246ZM299.571 188.192C299.005 188.192 298.504 188.091 298.067 187.888C297.64 187.675 297.304 187.387 297.059 187.024C296.813 186.651 296.691 186.224 296.691 185.744C296.691 185.285 296.787 184.875 296.979 184.512C297.181 184.139 297.491 183.824 297.907 183.568C298.333 183.312 298.867 183.131 299.507 183.024L302.707 182.496V183.744L299.843 184.224C299.288 184.32 298.883 184.496 298.627 184.752C298.381 185.008 298.259 185.323 298.259 185.696C298.259 186.048 298.397 186.341 298.675 186.576C298.963 186.811 299.32 186.928 299.747 186.928C300.291 186.928 300.76 186.816 301.155 186.592C301.56 186.357 301.875 186.043 302.099 185.648C302.333 185.253 302.451 184.816 302.451 184.336V182.144C302.451 181.675 302.275 181.296 301.923 181.008C301.581 180.709 301.128 180.56 300.563 180.56C300.072 180.56 299.635 180.688 299.251 180.944C298.877 181.189 298.6 181.52 298.419 181.936L297.123 181.264C297.283 180.869 297.539 180.517 297.891 180.208C298.243 179.888 298.653 179.637 299.123 179.456C299.592 179.275 300.083 179.184 300.595 179.184C301.256 179.184 301.837 179.312 302.339 179.568C302.84 179.813 303.229 180.16 303.507 180.608C303.795 181.045 303.939 181.557 303.939 182.144V188H302.483V186.368L302.755 186.464C302.573 186.805 302.328 187.104 302.019 187.36C301.709 187.616 301.347 187.819 300.931 187.968C300.515 188.117 300.061 188.192 299.571 188.192ZM306.246 188V179.376H307.702V181.056L307.462 180.912C307.675 180.368 308.016 179.947 308.486 179.648C308.966 179.339 309.526 179.184 310.166 179.184C310.784 179.184 311.334 179.323 311.814 179.6C312.304 179.877 312.688 180.261 312.966 180.752C313.254 181.243 313.398 181.797 313.398 182.416V188H311.894V182.896C311.894 182.416 311.808 182.011 311.638 181.68C311.467 181.349 311.222 181.093 310.902 180.912C310.592 180.72 310.235 180.624 309.83 180.624C309.424 180.624 309.062 180.72 308.742 180.912C308.432 181.093 308.187 181.355 308.006 181.696C307.824 182.027 307.734 182.427 307.734 182.896V188H306.246ZM319.527 188.192C318.684 188.192 317.932 187.995 317.271 187.6C316.62 187.205 316.108 186.667 315.735 185.984C315.362 185.301 315.175 184.533 315.175 183.68C315.175 182.816 315.362 182.048 315.735 181.376C316.108 180.704 316.62 180.171 317.271 179.776C317.932 179.381 318.684 179.184 319.527 179.184C320.092 179.184 320.62 179.285 321.111 179.488C321.602 179.691 322.034 179.963 322.407 180.304C322.78 180.645 323.052 181.045 323.223 181.504L321.895 182.144C321.692 181.696 321.383 181.333 320.967 181.056C320.551 180.768 320.071 180.624 319.527 180.624C319.004 180.624 318.53 180.757 318.103 181.024C317.687 181.291 317.356 181.653 317.111 182.112C316.866 182.571 316.743 183.099 316.743 183.696C316.743 184.272 316.866 184.795 317.111 185.264C317.356 185.723 317.687 186.085 318.103 186.352C318.53 186.619 319.004 186.752 319.527 186.752C320.071 186.752 320.551 186.613 320.967 186.336C321.383 186.048 321.692 185.669 321.895 185.2L323.223 185.872C323.052 186.32 322.78 186.72 322.407 187.072C322.034 187.413 321.602 187.685 321.111 187.888C320.62 188.091 320.092 188.192 319.527 188.192ZM329.136 188.192C328.304 188.192 327.562 187.995 326.912 187.6C326.261 187.205 325.749 186.667 325.376 185.984C325.002 185.291 324.816 184.517 324.816 183.664C324.816 182.8 324.997 182.032 325.36 181.36C325.733 180.688 326.234 180.16 326.864 179.776C327.504 179.381 328.218 179.184 329.008 179.184C329.648 179.184 330.213 179.301 330.704 179.536C331.205 179.76 331.626 180.069 331.968 180.464C332.32 180.848 332.586 181.291 332.768 181.792C332.96 182.283 333.056 182.795 333.056 183.328C333.056 183.445 333.045 183.579 333.024 183.728C333.013 183.867 332.997 184 332.976 184.128H325.904V182.848H332.112L331.408 183.424C331.504 182.869 331.45 182.373 331.248 181.936C331.045 181.499 330.746 181.152 330.352 180.896C329.957 180.64 329.509 180.512 329.008 180.512C328.506 180.512 328.048 180.64 327.632 180.896C327.216 181.152 326.89 181.52 326.656 182C326.432 182.469 326.341 183.029 326.384 183.68C326.341 184.309 326.437 184.864 326.672 185.344C326.917 185.813 327.258 186.181 327.696 186.448C328.144 186.704 328.629 186.832 329.152 186.832C329.728 186.832 330.213 186.699 330.608 186.432C331.002 186.165 331.322 185.824 331.568 185.408L332.816 186.048C332.645 186.443 332.378 186.805 332.016 187.136C331.664 187.456 331.242 187.712 330.752 187.904C330.272 188.096 329.733 188.192 329.136 188.192ZM334.996 188V179.376H336.452V180.96L336.292 180.736C336.494 180.245 336.804 179.883 337.22 179.648C337.636 179.403 338.142 179.28 338.74 179.28H339.268V180.688H338.516C337.908 180.688 337.417 180.88 337.044 181.264C336.67 181.637 336.484 182.171 336.484 182.864V188H334.996ZM343.963 184.656V182.736H345.515V184.656H343.963ZM351.375 188V176.08H358.927V177.52H352.943V181.376H358.367V182.816H352.943V188H351.375ZM360.043 188V179.376H361.499V180.96L361.339 180.736C361.541 180.245 361.851 179.883 362.267 179.648C362.683 179.403 363.189 179.28 363.787 179.28H364.315V180.688H363.563C362.955 180.688 362.464 180.88 362.091 181.264C361.717 181.637 361.531 182.171 361.531 182.864V188H360.043ZM369.732 188.192C368.9 188.192 368.148 188 367.476 187.616C366.804 187.221 366.271 186.683 365.876 186C365.482 185.317 365.284 184.544 365.284 183.68C365.284 182.816 365.476 182.048 365.86 181.376C366.255 180.704 366.788 180.171 367.46 179.776C368.132 179.381 368.89 179.184 369.732 179.184C370.564 179.184 371.316 179.381 371.988 179.776C372.66 180.16 373.188 180.688 373.572 181.36C373.967 182.032 374.164 182.805 374.164 183.68C374.164 184.555 373.962 185.333 373.556 186.016C373.151 186.688 372.612 187.221 371.94 187.616C371.279 188 370.543 188.192 369.732 188.192ZM369.732 186.752C370.266 186.752 370.746 186.619 371.172 186.352C371.61 186.085 371.951 185.717 372.196 185.248C372.452 184.779 372.58 184.256 372.58 183.68C372.58 183.093 372.452 182.576 372.196 182.128C371.951 181.669 371.61 181.307 371.172 181.04C370.746 180.763 370.266 180.624 369.732 180.624C369.188 180.624 368.698 180.763 368.26 181.04C367.834 181.307 367.492 181.669 367.236 182.128C366.98 182.576 366.852 183.093 366.852 183.68C366.852 184.256 366.98 184.779 367.236 185.248C367.492 185.717 367.834 186.085 368.26 186.352C368.698 186.619 369.188 186.752 369.732 186.752ZM376.105 188V179.376H377.561V181.056L377.321 180.912C377.534 180.368 377.876 179.947 378.345 179.648C378.825 179.339 379.385 179.184 380.025 179.184C380.644 179.184 381.193 179.323 381.673 179.6C382.164 179.877 382.548 180.261 382.825 180.752C383.113 181.243 383.257 181.797 383.257 182.416V188H381.753V182.896C381.753 182.416 381.668 182.011 381.497 181.68C381.326 181.349 381.081 181.093 380.761 180.912C380.452 180.72 380.094 180.624 379.689 180.624C379.284 180.624 378.921 180.72 378.601 180.912C378.292 181.093 378.046 181.355 377.865 181.696C377.684 182.027 377.593 182.427 377.593 182.896V188H376.105ZM388.89 188.096C388.048 188.096 387.397 187.856 386.938 187.376C386.49 186.896 386.266 186.219 386.266 185.344V180.8H384.698V179.376H385.018C385.402 179.376 385.706 179.259 385.93 179.024C386.154 178.789 386.266 178.48 386.266 178.096V177.392H387.754V179.376H389.69V180.8H387.754V185.296C387.754 185.584 387.797 185.835 387.882 186.048C387.978 186.261 388.133 186.432 388.346 186.56C388.56 186.677 388.842 186.736 389.194 186.736C389.269 186.736 389.36 186.731 389.466 186.72C389.584 186.709 389.69 186.699 389.786 186.688V188C389.648 188.032 389.493 188.053 389.322 188.064C389.152 188.085 389.008 188.096 388.89 188.096ZM391.842 184.368V183.008H397.842V184.368H391.842ZM400.422 188V176.08H408.182V177.52H401.99V181.296H407.862V182.736H401.99V186.56H408.182V188H400.422ZM409.949 188V179.376H411.405V181.056L411.165 180.912C411.378 180.368 411.72 179.947 412.189 179.648C412.669 179.339 413.229 179.184 413.869 179.184C414.488 179.184 415.037 179.323 415.517 179.6C416.008 179.877 416.392 180.261 416.669 180.752C416.957 181.243 417.101 181.797 417.101 182.416V188H415.597V182.896C415.597 182.416 415.512 182.011 415.341 181.68C415.17 181.349 414.925 181.093 414.605 180.912C414.296 180.72 413.938 180.624 413.533 180.624C413.128 180.624 412.765 180.72 412.445 180.912C412.136 181.093 411.89 181.355 411.709 181.696C411.528 182.027 411.437 182.427 411.437 182.896V188H409.949ZM423.15 188.192C422.339 188.192 421.609 187.995 420.958 187.6C420.318 187.205 419.811 186.667 419.438 185.984C419.065 185.301 418.878 184.539 418.878 183.696C418.878 182.832 419.065 182.064 419.438 181.392C419.811 180.709 420.318 180.171 420.958 179.776C421.609 179.381 422.339 179.184 423.15 179.184C423.865 179.184 424.499 179.339 425.054 179.648C425.609 179.947 426.046 180.352 426.366 180.864L426.126 181.232V175.888H427.63V188H426.174V186.16L426.366 186.416C426.067 186.981 425.63 187.419 425.054 187.728C424.489 188.037 423.854 188.192 423.15 188.192ZM423.278 186.752C423.822 186.752 424.307 186.619 424.734 186.352C425.161 186.085 425.497 185.723 425.742 185.264C425.998 184.795 426.126 184.272 426.126 183.696C426.126 183.109 425.998 182.587 425.742 182.128C425.497 181.659 425.161 181.291 424.734 181.024C424.307 180.757 423.822 180.624 423.278 180.624C422.745 180.624 422.259 180.763 421.822 181.04C421.395 181.307 421.059 181.669 420.814 182.128C420.569 182.576 420.446 183.099 420.446 183.696C420.446 184.272 420.569 184.795 420.814 185.264C421.059 185.723 421.395 186.085 421.822 186.352C422.249 186.619 422.734 186.752 423.278 186.752ZM432.875 188V176.08H436.779C437.984 176.08 439.035 176.325 439.931 176.816C440.827 177.307 441.52 178 442.011 178.896C442.502 179.781 442.747 180.827 442.747 182.032C442.747 183.227 442.502 184.272 442.011 185.168C441.52 186.064 440.827 186.763 439.931 187.264C439.035 187.755 437.984 188 436.779 188H432.875ZM434.443 186.56H436.795C437.68 186.56 438.443 186.373 439.083 186C439.734 185.627 440.235 185.104 440.587 184.432C440.939 183.749 441.115 182.949 441.115 182.032C441.115 181.104 440.934 180.304 440.571 179.632C440.219 178.96 439.718 178.443 439.067 178.08C438.427 177.707 437.67 177.52 436.795 177.52H434.443V186.56ZM448.526 188.192C447.694 188.192 446.953 187.995 446.302 187.6C445.652 187.205 445.14 186.667 444.766 185.984C444.393 185.291 444.206 184.517 444.206 183.664C444.206 182.8 444.388 182.032 444.75 181.36C445.124 180.688 445.625 180.16 446.254 179.776C446.894 179.381 447.609 179.184 448.398 179.184C449.038 179.184 449.604 179.301 450.094 179.536C450.596 179.76 451.017 180.069 451.358 180.464C451.71 180.848 451.977 181.291 452.158 181.792C452.35 182.283 452.446 182.795 452.446 183.328C452.446 183.445 452.436 183.579 452.414 183.728C452.404 183.867 452.388 184 452.366 184.128H445.294V182.848H451.502L450.798 183.424C450.894 182.869 450.841 182.373 450.638 181.936C450.436 181.499 450.137 181.152 449.742 180.896C449.348 180.64 448.9 180.512 448.398 180.512C447.897 180.512 447.438 180.64 447.022 180.896C446.606 181.152 446.281 181.52 446.046 182C445.822 182.469 445.732 183.029 445.774 183.68C445.732 184.309 445.828 184.864 446.062 185.344C446.308 185.813 446.649 186.181 447.086 186.448C447.534 186.704 448.02 186.832 448.542 186.832C449.118 186.832 449.604 186.699 449.998 186.432C450.393 186.165 450.713 185.824 450.958 185.408L452.206 186.048C452.036 186.443 451.769 186.805 451.406 187.136C451.054 187.456 450.633 187.712 450.142 187.904C449.662 188.096 449.124 188.192 448.526 188.192ZM456.63 188L453.254 179.376H454.918L457.622 186.672H457.046L459.766 179.376H461.43L458.038 188H456.63ZM466.573 188.192C465.741 188.192 465 187.995 464.349 187.6C463.698 187.205 463.186 186.667 462.813 185.984C462.44 185.291 462.253 184.517 462.253 183.664C462.253 182.8 462.434 182.032 462.797 181.36C463.17 180.688 463.672 180.16 464.301 179.776C464.941 179.381 465.656 179.184 466.445 179.184C467.085 179.184 467.65 179.301 468.141 179.536C468.642 179.76 469.064 180.069 469.405 180.464C469.757 180.848 470.024 181.291 470.205 181.792C470.397 182.283 470.493 182.795 470.493 183.328C470.493 183.445 470.482 183.579 470.461 183.728C470.45 183.867 470.434 184 470.413 184.128H463.341V182.848H469.549L468.845 183.424C468.941 182.869 468.888 182.373 468.685 181.936C468.482 181.499 468.184 181.152 467.789 180.896C467.394 180.64 466.946 180.512 466.445 180.512C465.944 180.512 465.485 180.64 465.069 180.896C464.653 181.152 464.328 181.52 464.093 182C463.869 182.469 463.778 183.029 463.821 183.68C463.778 184.309 463.874 184.864 464.109 185.344C464.354 185.813 464.696 186.181 465.133 186.448C465.581 186.704 466.066 186.832 466.589 186.832C467.165 186.832 467.65 186.699 468.045 186.432C468.44 186.165 468.76 185.824 469.005 185.408L470.253 186.048C470.082 186.443 469.816 186.805 469.453 187.136C469.101 187.456 468.68 187.712 468.189 187.904C467.709 188.096 467.17 188.192 466.573 188.192ZM472.433 188V175.888H473.921V188H472.433ZM480.326 188.192C479.494 188.192 478.742 188 478.07 187.616C477.398 187.221 476.865 186.683 476.47 186C476.075 185.317 475.878 184.544 475.878 183.68C475.878 182.816 476.07 182.048 476.454 181.376C476.849 180.704 477.382 180.171 478.054 179.776C478.726 179.381 479.483 179.184 480.326 179.184C481.158 179.184 481.91 179.381 482.582 179.776C483.254 180.16 483.782 180.688 484.166 181.36C484.561 182.032 484.758 182.805 484.758 183.68C484.758 184.555 484.555 185.333 484.15 186.016C483.745 186.688 483.206 187.221 482.534 187.616C481.873 188 481.137 188.192 480.326 188.192ZM480.326 186.752C480.859 186.752 481.339 186.619 481.766 186.352C482.203 186.085 482.545 185.717 482.79 185.248C483.046 184.779 483.174 184.256 483.174 183.68C483.174 183.093 483.046 182.576 482.79 182.128C482.545 181.669 482.203 181.307 481.766 181.04C481.339 180.763 480.859 180.624 480.326 180.624C479.782 180.624 479.291 180.763 478.854 181.04C478.427 181.307 478.086 181.669 477.83 182.128C477.574 182.576 477.446 183.093 477.446 183.68C477.446 184.256 477.574 184.779 477.83 185.248C478.086 185.717 478.427 186.085 478.854 186.352C479.291 186.619 479.782 186.752 480.326 186.752ZM486.699 191.2V179.376H488.155V181.232L487.963 180.864C488.283 180.352 488.72 179.947 489.275 179.648C489.83 179.339 490.464 179.184 491.179 179.184C491.99 179.184 492.715 179.381 493.355 179.776C494.006 180.171 494.518 180.709 494.891 181.392C495.264 182.064 495.451 182.832 495.451 183.696C495.451 184.539 495.264 185.301 494.891 185.984C494.518 186.667 494.006 187.205 493.355 187.6C492.715 187.995 491.984 188.192 491.163 188.192C490.47 188.192 489.835 188.037 489.259 187.728C488.694 187.419 488.256 186.981 487.947 186.416L488.187 186.16V191.2H486.699ZM491.051 186.752C491.595 186.752 492.08 186.619 492.507 186.352C492.934 186.085 493.264 185.723 493.499 185.264C493.744 184.795 493.867 184.272 493.867 183.696C493.867 183.099 493.744 182.576 493.499 182.128C493.264 181.669 492.934 181.307 492.507 181.04C492.08 180.763 491.595 180.624 491.051 180.624C490.507 180.624 490.016 180.757 489.579 181.024C489.152 181.291 488.811 181.659 488.555 182.128C488.31 182.587 488.187 183.109 488.187 183.696C488.187 184.272 488.31 184.795 488.555 185.264C488.811 185.723 489.152 186.085 489.579 186.352C490.016 186.619 490.507 186.752 491.051 186.752ZM501.37 188.192C500.538 188.192 499.797 187.995 499.146 187.6C498.495 187.205 497.983 186.667 497.61 185.984C497.237 185.291 497.05 184.517 497.05 183.664C497.05 182.8 497.231 182.032 497.594 181.36C497.967 180.688 498.469 180.16 499.098 179.776C499.738 179.381 500.453 179.184 501.242 179.184C501.882 179.184 502.447 179.301 502.938 179.536C503.439 179.76 503.861 180.069 504.202 180.464C504.554 180.848 504.821 181.291 505.002 181.792C505.194 182.283 505.29 182.795 505.29 183.328C505.29 183.445 505.279 183.579 505.258 183.728C505.247 183.867 505.231 184 505.21 184.128H498.138V182.848H504.346L503.642 183.424C503.738 182.869 503.685 182.373 503.482 181.936C503.279 181.499 502.981 181.152 502.586 180.896C502.191 180.64 501.743 180.512 501.242 180.512C500.741 180.512 500.282 180.64 499.866 180.896C499.45 181.152 499.125 181.52 498.89 182C498.666 182.469 498.575 183.029 498.618 183.68C498.575 184.309 498.671 184.864 498.906 185.344C499.151 185.813 499.493 186.181 499.93 186.448C500.378 186.704 500.863 186.832 501.386 186.832C501.962 186.832 502.447 186.699 502.842 186.432C503.237 186.165 503.557 185.824 503.802 185.408L505.05 186.048C504.879 186.443 504.613 186.805 504.25 187.136C503.898 187.456 503.477 187.712 502.986 187.904C502.506 188.096 501.967 188.192 501.37 188.192ZM507.23 188V179.376H508.686V180.96L508.526 180.736C508.729 180.245 509.038 179.883 509.454 179.648C509.87 179.403 510.377 179.28 510.974 179.28H511.502V180.688H510.75C510.142 180.688 509.651 180.88 509.278 181.264C508.905 181.637 508.718 182.171 508.718 182.864V188H507.23ZM516.198 184.656V182.736H517.75V184.656H516.198ZM527.929 188.192C527.065 188.192 526.297 188.011 525.625 187.648C524.964 187.285 524.447 186.789 524.073 186.16C523.711 185.52 523.529 184.795 523.529 183.984V176.08H525.113V183.952C525.113 184.496 525.231 184.981 525.465 185.408C525.711 185.824 526.041 186.149 526.457 186.384C526.884 186.619 527.375 186.736 527.929 186.736C528.484 186.736 528.969 186.619 529.385 186.384C529.812 186.149 530.143 185.824 530.377 185.408C530.623 184.981 530.745 184.496 530.745 183.952V176.08H532.329V183.984C532.329 184.795 532.143 185.52 531.769 186.16C531.407 186.789 530.895 187.285 530.233 187.648C529.572 188.011 528.804 188.192 527.929 188.192ZM534.906 188V176.08H536.474V188H534.906ZM537.909 189.92L543.285 176.736H544.965L539.589 189.92H537.909ZM550.726 188.192C549.862 188.192 549.094 188.011 548.422 187.648C547.761 187.285 547.243 186.789 546.87 186.16C546.507 185.52 546.326 184.795 546.326 183.984V176.08H547.91V183.952C547.91 184.496 548.027 184.981 548.262 185.408C548.507 185.824 548.838 186.149 549.254 186.384C549.681 186.619 550.171 186.736 550.726 186.736C551.281 186.736 551.766 186.619 552.182 186.384C552.609 186.149 552.939 185.824 553.174 185.408C553.419 184.981 553.542 184.496 553.542 183.952V176.08H555.126V183.984C555.126 184.795 554.939 185.52 554.566 186.16C554.203 186.789 553.691 187.285 553.03 187.648C552.369 188.011 551.601 188.192 550.726 188.192ZM556.551 188L560.439 181.952L556.647 176.08H558.439L561.655 181.088H560.983L564.199 176.08H565.991L562.199 181.952L566.087 188H564.295L560.983 182.816H561.655L558.327 188H556.551ZM570.359 188V176.08H574.263C575.469 176.08 576.519 176.325 577.415 176.816C578.311 177.307 579.005 178 579.495 178.896C579.986 179.781 580.231 180.827 580.231 182.032C580.231 183.227 579.986 184.272 579.495 185.168C579.005 186.064 578.311 186.763 577.415 187.264C576.519 187.755 575.469 188 574.263 188H570.359ZM571.927 186.56H574.279C575.165 186.56 575.927 186.373 576.567 186C577.218 185.627 577.719 185.104 578.071 184.432C578.423 183.749 578.599 182.949 578.599 182.032C578.599 181.104 578.418 180.304 578.055 179.632C577.703 178.96 577.202 178.443 576.551 178.08C575.911 177.707 575.154 177.52 574.279 177.52H571.927V186.56ZM586.011 188.192C585.179 188.192 584.437 187.995 583.787 187.6C583.136 187.205 582.624 186.667 582.251 185.984C581.877 185.291 581.691 184.517 581.691 183.664C581.691 182.8 581.872 182.032 582.235 181.36C582.608 180.688 583.109 180.16 583.739 179.776C584.379 179.381 585.093 179.184 585.883 179.184C586.523 179.184 587.088 179.301 587.579 179.536C588.08 179.76 588.501 180.069 588.843 180.464C589.195 180.848 589.461 181.291 589.643 181.792C589.835 182.283 589.931 182.795 589.931 183.328C589.931 183.445 589.92 183.579 589.899 183.728C589.888 183.867 589.872 184 589.851 184.128H582.779V182.848H588.987L588.283 183.424C588.379 182.869 588.325 182.373 588.123 181.936C587.92 181.499 587.621 181.152 587.227 180.896C586.832 180.64 586.384 180.512 585.883 180.512C585.381 180.512 584.923 180.64 584.507 180.896C584.091 181.152 583.765 181.52 583.531 182C583.307 182.469 583.216 183.029 583.259 183.68C583.216 184.309 583.312 184.864 583.547 185.344C583.792 185.813 584.133 186.181 584.571 186.448C585.019 186.704 585.504 186.832 586.027 186.832C586.603 186.832 587.088 186.699 587.483 186.432C587.877 186.165 588.197 185.824 588.443 185.408L589.691 186.048C589.52 186.443 589.253 186.805 588.891 187.136C588.539 187.456 588.117 187.712 587.627 187.904C587.147 188.096 586.608 188.192 586.011 188.192ZM594.959 188.192C594.095 188.192 593.343 187.979 592.703 187.552C592.063 187.125 591.609 186.549 591.343 185.824L592.527 185.248C592.772 185.76 593.108 186.165 593.535 186.464C593.961 186.763 594.436 186.912 594.959 186.912C595.428 186.912 595.817 186.8 596.127 186.576C596.436 186.352 596.591 186.059 596.591 185.696C596.591 185.44 596.516 185.237 596.367 185.088C596.228 184.928 596.057 184.805 595.855 184.72C595.652 184.624 595.465 184.555 595.295 184.512L593.999 184.144C593.22 183.92 592.649 183.6 592.287 183.184C591.935 182.768 591.759 182.283 591.759 181.728C591.759 181.216 591.887 180.773 592.143 180.4C592.409 180.016 592.767 179.717 593.215 179.504C593.673 179.291 594.185 179.184 594.751 179.184C595.508 179.184 596.185 179.376 596.783 179.76C597.391 180.144 597.823 180.683 598.079 181.376L596.863 181.936C596.671 181.488 596.383 181.136 595.999 180.88C595.615 180.613 595.183 180.48 594.703 180.48C594.265 180.48 593.919 180.592 593.663 180.816C593.407 181.029 593.279 181.301 593.279 181.632C593.279 181.877 593.343 182.08 593.471 182.24C593.599 182.389 593.753 182.507 593.935 182.592C594.116 182.667 594.292 182.731 594.463 182.784L595.871 183.2C596.575 183.403 597.119 183.717 597.503 184.144C597.897 184.571 598.095 185.083 598.095 185.68C598.095 186.16 597.961 186.592 597.695 186.976C597.428 187.36 597.06 187.659 596.591 187.872C596.121 188.085 595.577 188.192 594.959 188.192ZM600.043 188V179.376H601.531V188H600.043ZM600.043 178V176.08H601.531V178H600.043ZM607.952 191.52C607.344 191.52 606.778 191.424 606.256 191.232C605.744 191.04 605.301 190.773 604.928 190.432C604.565 190.101 604.288 189.712 604.096 189.264L605.488 188.624C605.637 189.029 605.92 189.371 606.336 189.648C606.762 189.936 607.296 190.08 607.936 190.08C608.426 190.08 608.869 189.984 609.264 189.792C609.669 189.611 609.989 189.333 610.224 188.96C610.458 188.597 610.576 188.155 610.576 187.632V185.696L610.848 185.984C610.549 186.571 610.117 187.019 609.552 187.328C608.997 187.637 608.384 187.792 607.712 187.792C606.901 187.792 606.176 187.605 605.536 187.232C604.896 186.848 604.394 186.331 604.032 185.68C603.669 185.019 603.488 184.288 603.488 183.488C603.488 182.677 603.669 181.947 604.032 181.296C604.394 180.645 604.89 180.133 605.52 179.76C606.16 179.376 606.885 179.184 607.696 179.184C608.368 179.184 608.976 179.339 609.52 179.648C610.074 179.947 610.517 180.363 610.848 180.896L610.624 181.296V179.376H612.08V187.632C612.08 188.379 611.904 189.045 611.552 189.632C611.2 190.219 610.709 190.677 610.08 191.008C609.461 191.349 608.752 191.52 607.952 191.52ZM607.84 186.352C608.352 186.352 608.81 186.224 609.216 185.968C609.632 185.712 609.962 185.371 610.208 184.944C610.453 184.507 610.576 184.021 610.576 183.488C610.576 182.965 610.453 182.485 610.208 182.048C609.962 181.611 609.632 181.264 609.216 181.008C608.81 180.752 608.352 180.624 607.84 180.624C607.317 180.624 606.842 180.752 606.416 181.008C605.989 181.264 605.653 181.611 605.408 182.048C605.173 182.475 605.056 182.955 605.056 183.488C605.056 184.021 605.173 184.507 605.408 184.944C605.653 185.371 605.984 185.712 606.4 185.968C606.826 186.224 607.306 186.352 607.84 186.352ZM614.386 188V179.376H615.842V181.056L615.602 180.912C615.816 180.368 616.157 179.947 616.626 179.648C617.106 179.339 617.666 179.184 618.306 179.184C618.925 179.184 619.474 179.323 619.954 179.6C620.445 179.877 620.829 180.261 621.106 180.752C621.394 181.243 621.538 181.797 621.538 182.416V188H620.034V182.896C620.034 182.416 619.949 182.011 619.778 181.68C619.608 181.349 619.362 181.093 619.042 180.912C618.733 180.72 618.376 180.624 617.97 180.624C617.565 180.624 617.202 180.72 616.882 180.912C616.573 181.093 616.328 181.355 616.146 181.696C615.965 182.027 615.874 182.427 615.874 182.896V188H614.386ZM627.636 188.192C626.804 188.192 626.062 187.995 625.412 187.6C624.761 187.205 624.249 186.667 623.876 185.984C623.502 185.291 623.316 184.517 623.316 183.664C623.316 182.8 623.497 182.032 623.86 181.36C624.233 180.688 624.734 180.16 625.364 179.776C626.004 179.381 626.718 179.184 627.508 179.184C628.148 179.184 628.713 179.301 629.204 179.536C629.705 179.76 630.126 180.069 630.468 180.464C630.82 180.848 631.086 181.291 631.268 181.792C631.46 182.283 631.556 182.795 631.556 183.328C631.556 183.445 631.545 183.579 631.524 183.728C631.513 183.867 631.497 184 631.476 184.128H624.404V182.848H630.612L629.908 183.424C630.004 182.869 629.95 182.373 629.748 181.936C629.545 181.499 629.246 181.152 628.852 180.896C628.457 180.64 628.009 180.512 627.508 180.512C627.006 180.512 626.548 180.64 626.132 180.896C625.716 181.152 625.39 181.52 625.156 182C624.932 182.469 624.841 183.029 624.884 183.68C624.841 184.309 624.937 184.864 625.172 185.344C625.417 185.813 625.758 186.181 626.196 186.448C626.644 186.704 627.129 186.832 627.652 186.832C628.228 186.832 628.713 186.699 629.108 186.432C629.502 186.165 629.822 185.824 630.068 185.408L631.316 186.048C631.145 186.443 630.878 186.805 630.516 187.136C630.164 187.456 629.742 187.712 629.252 187.904C628.772 188.096 628.233 188.192 627.636 188.192ZM633.496 188V179.376H634.952V180.96L634.792 180.736C634.994 180.245 635.304 179.883 635.72 179.648C636.136 179.403 636.642 179.28 637.24 179.28H637.768V180.688H637.016C636.408 180.688 635.917 180.88 635.544 181.264C635.17 181.637 634.984 182.171 634.984 182.864V188H633.496Z"
        fill="#94a3b8"
      />
    </g>
    <!-- #endregion -->

    <!-- #region additional  -->
    <g class="animate-fade-in-right additional">
      <g class="additional__indicator animate-fade-in">
        <circle cx="373" cy="215" r="5" fill="#FCFBFF" class="animate-ping" />
        <circle cx="373" cy="215" r="3" fill="#C4B5FD" />
      </g>
      <g class="additional__text">
        <path
          d="M386.132 219L389.156 210.06H391.628L394.652 219H392.624L392.024 217.176H388.748L388.148 219H386.132ZM389.264 215.556H391.508L390.14 211.332H390.644L389.264 215.556ZM397.501 219L394.441 210.06H396.481L398.785 217.236H398.377L400.681 210.06H402.721L399.661 219H397.501ZM402.503 219L405.527 210.06H407.999L411.023 219H408.995L408.395 217.176H405.119L404.519 219H402.503ZM405.635 215.556H407.879L406.511 211.332H407.015L405.635 215.556ZM411.952 219V210.06H413.812V219H411.952ZM415.397 219V210.06H417.257V217.38H421.037V219H415.397ZM421.3 219L424.324 210.06H426.796L429.82 219H427.792L427.192 217.176H423.916L423.316 219H421.3ZM424.432 215.556H426.676L425.308 211.332H425.812L424.432 215.556ZM430.749 219V210.06H434.529C435.145 210.06 435.673 210.164 436.113 210.372C436.553 210.58 436.889 210.88 437.121 211.272C437.353 211.656 437.469 212.124 437.469 212.676C437.469 213.068 437.361 213.444 437.145 213.804C436.929 214.156 436.573 214.452 436.077 214.692V213.78C436.549 213.964 436.913 214.184 437.169 214.44C437.425 214.696 437.601 214.976 437.697 215.28C437.793 215.576 437.841 215.888 437.841 216.216C437.841 217.096 437.549 217.78 436.965 218.268C436.381 218.756 435.569 219 434.529 219H430.749ZM432.609 217.38H434.745C435.121 217.38 435.421 217.272 435.645 217.056C435.869 216.84 435.981 216.56 435.981 216.216C435.981 215.864 435.869 215.58 435.645 215.364C435.421 215.148 435.121 215.04 434.745 215.04H432.609V217.38ZM432.609 213.42H434.661C434.949 213.42 435.177 213.34 435.345 213.18C435.521 213.012 435.609 212.792 435.609 212.52C435.609 212.248 435.521 212.032 435.345 211.872C435.177 211.704 434.949 211.62 434.661 211.62H432.609V213.42ZM439.034 219V210.06H440.894V217.38H444.674V219H439.034ZM445.597 219V210.06H451.609V211.68H447.457V213.708H451.369V215.328H447.457V217.38H451.609V219H445.597ZM454.819 219V210.06H460.939V211.68H456.679V213.948H460.339V215.568H456.679V219H454.819ZM466.221 219.144C465.549 219.144 464.925 219.028 464.349 218.796C463.773 218.564 463.269 218.24 462.837 217.824C462.413 217.4 462.081 216.908 461.841 216.348C461.601 215.788 461.481 215.18 461.481 214.524C461.481 213.868 461.597 213.26 461.829 212.7C462.069 212.14 462.401 211.652 462.825 211.236C463.257 210.82 463.761 210.496 464.337 210.264C464.913 210.032 465.541 209.916 466.221 209.916C466.901 209.916 467.529 210.032 468.105 210.264C468.681 210.496 469.181 210.82 469.605 211.236C470.037 211.652 470.369 212.14 470.601 212.7C470.841 213.26 470.961 213.868 470.961 214.524C470.961 215.18 470.841 215.788 470.601 216.348C470.361 216.908 470.025 217.4 469.593 217.824C469.169 218.24 468.669 218.564 468.093 218.796C467.517 219.028 466.893 219.144 466.221 219.144ZM466.221 217.464C466.629 217.464 467.005 217.392 467.349 217.248C467.701 217.104 468.009 216.904 468.273 216.648C468.537 216.384 468.741 216.072 468.885 215.712C469.029 215.352 469.101 214.956 469.101 214.524C469.101 214.092 469.029 213.7 468.885 213.348C468.741 212.988 468.537 212.676 468.273 212.412C468.009 212.148 467.701 211.948 467.349 211.812C467.005 211.668 466.629 211.596 466.221 211.596C465.813 211.596 465.433 211.668 465.081 211.812C464.737 211.948 464.433 212.148 464.169 212.412C463.905 212.676 463.701 212.988 463.557 213.348C463.413 213.7 463.341 214.092 463.341 214.524C463.341 214.956 463.413 215.352 463.557 215.712C463.701 216.072 463.905 216.384 464.169 216.648C464.433 216.904 464.737 217.104 465.081 217.248C465.433 217.392 465.813 217.464 466.221 217.464ZM472.28 219V210.06H475.7C476.316 210.06 476.86 210.168 477.332 210.384C477.812 210.6 478.188 210.92 478.46 211.344C478.732 211.768 478.868 212.292 478.868 212.916C478.868 213.524 478.728 214.044 478.448 214.476C478.168 214.9 477.792 215.22 477.32 215.436L479.36 219H477.272L475.064 215.052L476.264 215.76H474.14V219H472.28ZM474.14 214.14H475.712C475.976 214.14 476.204 214.088 476.396 213.984C476.588 213.88 476.736 213.736 476.84 213.552C476.952 213.368 477.008 213.156 477.008 212.916C477.008 212.668 476.952 212.452 476.84 212.268C476.736 212.084 476.588 211.94 476.396 211.836C476.204 211.732 475.976 211.68 475.712 211.68H474.14V214.14ZM482.44 219V210.06H484.3V213.924H487.78V210.06H489.64V219H487.78V215.544H484.3V219H482.44ZM491.229 219V210.06H493.09V219H491.229ZM494.675 219V210.06H498.095C498.711 210.06 499.255 210.168 499.727 210.384C500.207 210.6 500.583 210.92 500.855 211.344C501.127 211.768 501.263 212.292 501.263 212.916C501.263 213.524 501.123 214.044 500.843 214.476C500.563 214.9 500.187 215.22 499.715 215.436L501.755 219H499.667L497.459 215.052L498.659 215.76H496.535V219H494.675ZM496.535 214.14H498.107C498.371 214.14 498.599 214.088 498.791 213.984C498.983 213.88 499.131 213.736 499.235 213.552C499.347 213.368 499.403 213.156 499.403 212.916C499.403 212.668 499.347 212.452 499.235 212.268C499.131 212.084 498.983 211.94 498.791 211.836C498.599 211.732 498.371 211.68 498.107 211.68H496.535V214.14ZM502.679 219V210.06H508.691V211.68H504.539V213.708H508.451V215.328H504.539V217.38H508.691V219H502.679Z"
          fill="#C4B5FD"
        />
      </g>
    </g>
    <!-- #endregion -->
  </g>

  <!-- #region defs -->
  <defs>
    <linearGradient
      id="paint0_linear_1_2"
      x1="448"
      y1="0"
      x2="448"
      y2="288"
      gradientUnits="userSpaceOnUse"
    >
      <stop stop-color="#0F172A" />
      <stop offset="1" stop-color="#0F172A" stop-opacity="0" />
    </linearGradient>
    <linearGradient
      id="paint1_linear_1_2"
      x1="448"
      y1="0"
      x2="448"
      y2="288"
      gradientUnits="userSpaceOnUse"
    >
      <stop />
      <stop offset="1" stop-opacity="0" />
    </linearGradient>
    <clipPath id="clip0_1_2">
      <path
        d="M0 32C0 14.3269 14.3269 0 32 0H864C881.673 0 896 14.3269 896 32V288H0V32Z"
        fill="white"
      />
    </clipPath>
  </defs>
  <!-- #endregion -->
</svg>
